<svg xmlns="http://www.w3.org/2000/svg" viewBox="0 0 140 170"><path fill="#EC5148" d="M95.3 19.2v2.5h-.1L95 38.2l6.6 8.8-6-.3v.2l-.4.7v-.1a23 23 0 01-.1 5.7l13.5 9.6v-2V54c0-5.7.2-9.3.6-10.4.3-1 .8-2.1 1.6-3.3a34.4 34.4 0 014-5.4l.4-.5.2-.2.1-3.8c-2.4 0-4.4-2-4.5-4.4v-.2c0-2.6 2-4.7 4.6-4.7h12.7a4.7 4.7 0 010 9.3h-.2v2.3c.4.2.8.5 1.1.9l.1.1c1.2 1.6 1 3.9-.7 5l-.8.7c.8.2 1.4.6 2 1.3v.2c1.1 1.5.8 3.7-.8 4.8l-.3.3.9.8.1.2c1 1.6.7 3.7-.8 4.9l-.8.5c.7.2 1.2.6 1.6 1.2 1.2 1.6 1 3.9-.7 5l-.7.6v6.7h8v10.8H131v41.1a13 13 0 013.1 2.4l.2.2c2 2.2 2.5 4.4 2.3 6.3v.2l-.5 8.8-.3 2-.1.7-.4 1.5-.4.7a1.3 1.3 0 01-.8.5c-.6.6-1.4 1.1-2.2 1.7a15.4 15.4 0 01-5.9 2.4 27.4 27.4 0 01-11.2-.6l-.6-.2h-.3l-1-.4.3-9.2c-3 .5-7.3 1.8-13 3.7l-1.7.5-9.2 3.2-17 6-5.2 2-.8.2c-21.3 7.4-35 11-43.6 10.7-9.5-.3-15.2-2.4-17.9-6a7.6 7.6 0 01-1.5-6.3l-.1-12.9a11.1 11.1 0 010-4c.5-2 1.6-3.6 3.6-4.3 2.7-1 5-1.3 6.6-1.2l.4-44.6L30 70.2l1-.6 14.4-10.2A169 169 0 0147.3 27l1.2-5 .2-.6.4-1v-.2l.4-.7 45.8-.3zM132 139.6c-3.2-3.6-8.4-5.8-16.3-5.2l-.2 7.8h.2l.7.2h.4a25 25 0 009.4.2 13 13 0 004.3-2l1.3-.8.2-.2zM29.5 123.7l-12.8 17.1c3 .4 6.5.4 10.7 0l.3-.1 1.7-.2v-16.8zm-18 5.2c-1 .2-2.4.5-3.8 1-1.1.4-1.8 1.3-2 2.5l-.2.8h.1v.3c.2 1.6 1.1 3.3 3.2 4.7 1.2.9 2.7 1.5 4.5 2v-11.3h-1.7zm26.8 7l-4.7 3.5-.5.3-.2.2a172 172 0 0026.1-8.3l-7.5-6.7c-4.3 4-8.7 7.7-13.2 11zm-8.8-46.2l-13.3.1-.4 48 13.7-18.3V89.7zM66.8 97L65 99l-.7.8-5.8 7-.9 1c-1.9 2.3-3.5 4.1-5 5.6-1.7 2-3.5 3.5-5.6 5.5-3.4 3.2-7.4 6.7-11 9.5l-1 .8-2.1 1.6-1 .8v6l.2-.3a162.3 162.3 0 0026.3-23l.7-.8 2.5-3 .5-.4.8-1 1.6-2 2.5-3 2.2-2.8 1.1-1.4-1.6-1.4-2-1.6zM54 122.4l-.8.8 8.4 7.4 1.8-.8.7-.2 3-1.2-10-9-3 3zm6.2-6.4l-1.4 1.5 11 10 3-1.3 2-.7-.5-.4-12-11.4-2 2.3zm50.3-25.6c-3 2.3-6.6 5.4-11 9.6l-13.2 13.4a169 169 0 00-9.2 10.9l.2.2c16.3-6.2 25.7-9 33.2-9.8V90.4zm-78-18.8l-.5.3-.1 52c2.2-1.9 8-6.8 10.9-9.5a113.7 113.7 0 0010-10.4l1.1-1.4.5-.5a471 471 0 005.8-7l1.6-2L44 79.4c-4.9-3.5-8.7-6-11.5-7.7zm-9.9 44l1 2 2.3.3-1.6 1.6.4 2.2-2-1-2 1 .3-2.2-1.6-1.6 2.2-.3 1-2zm49.6-14l-.7.9a519.7 519.7 0 01-6.6 8.1l-1 1v.2l6 5.6 1.9-2.3 1.3-1.6 5-5.8a78 78 0 00-6-6zm-2 10.7a1.4 1.4 0 110 2.9 1.4 1.4 0 010-2.9zM113 76.5v38h2.7l3.3.2.2-38.1h-6.2zm-90.4 31.2l1 2 2.3.3-1.6 1.6.4 2.2-2-1-2 1 .3-2.2-1.6-1.6 2.2-.3 1-2zm45.3 1.5a1.4 1.4 0 110 2.9 1.4 1.4 0 010-2.9zm4.7-1.4a1.4 1.4 0 110 2.9 1.4 1.4 0 010-2.9zm-.5-4.2a1.4 1.4 0 110 2.8 1.4 1.4 0 010-2.8zm-49.5-3.8l1 2 2.3.4-1.6 1.6.4 2.2-2-1-2 1 .3-2.2-1.6-1.6 2.2-.3 1-2zM44 63.5l-3.2 2.3 1.4 1c1 .5 2 1 3 1.7l1.1.7a218.6 218.6 0 0121.6 15.5 241.7 241.7 0 0116.6 15.2l.4.5.4-.5 2.7-2.8.5-.6.5-.5-.4-.4-.4-.4a158.2 158.2 0 00-20.4-16.6C63 75.3 58 72 53 69l-1.8-1.1-4.8-3-1.7-1-.8-.4zM22.7 92l1 2 2.3.3-1.6 1.6.4 2.2-2-1-2 1L21 96l-1.6-1.6 2.2-.3 1-2zm77.5-19.5a67.5 67.5 0 00-5.8 5l-.7.7-1.2 1.3a225.8 225.8 0 00-6.3 7L85 87.9l-.5.6 1.6 1.4 1 1c1 .7 1.7 1.4 2.4 2.1l1 1 .3.3 2.8-2.7 1.2-1 1.3-1.2 1.4-1.3 9.4-7.9.5-.4 1.4-1 1.5-1.3.4-.3v-.7H105l.2-7.6-5 3.6zM88 87a1.4 1.4 0 110 2.9 1.4 1.4 0 010-2.9zm4.8-1a1.4 1.4 0 110 3 1.4 1.4 0 010-3zM29.6 73.8L16.3 83v4.2h13.2V73.6zm73.1-12l-.8.5a130.9 130.9 0 00-11.4 8.6l-1.8 1.8-.7.6-.3.4a211 211 0 00-6.2 6.8l-2.2 2.5-.6.7 3.9 3.3h-.1l1.5-1.7.3-.4 6-6.5.8-1 .5-.4a178.6 178.6 0 012.9-3 70 70 0 0110.4-7.9l.9-.6 1.1-.7-4.2-3zM92.8 82a1.4 1.4 0 110 2.8 1.4 1.4 0 010-2.8zm5.4-.4a1.4 1.4 0 110 2.9 1.4 1.4 0 010-2.9zm6-4.2a1.4 1.4 0 110 3 1.4 1.4 0 010-3zM73.4 57.8l-.1 1-.3 3v2.5l-23.1-.2a413.5 413.5 0 0124.4 16.1l.4-.4 1.5-1.7.4-.4 5.9-6.5.9-1 .4-.5a178 178 0 012.9-2.8 70 70 0 0110.5-8l.8-.6-3.7-2.5c-.4.9-1 1.6-1.7 2.1-2 1.6-5.4 1.4-9.8 0a49.4 49.4 0 01-8.7-3.7H74l-.6 3.6zM98.8 77a1.4 1.4 0 110 2.9 1.4 1.4 0 010-2.9zm4-4a1.4 1.4 0 110 2.8 1.4 1.4 0 010-2.9zm31-4.7h-26.2l-.1 5.6 26.3.2v-5.8zm-19.3-29.1a32 32 0 00-1.6 2.3c-.6 1-1.1 2-1.3 2.7v.2c-.3 1-.4 5-.5 10.4v11h14.7v-4.8l-4.8 3.6a3.6 3.6 0 01-5-.5V64a3.6 3.6 0 01.6-5l.8-.6c-.7-.2-1.2-.6-1.6-1.2a3.6 3.6 0 01.7-5l.3-.3-.9-.8a3.6 3.6 0 01.7-5l1-.7a3.6 3.6 0 01-2.4-5v-2.1l-.7 1zM127.7 55c-.4-.4-1-.4-1.5-.1l-8 6c-.5.4-.6 1.1-.3 1.6.4.5 1 .6 1.6.2l8-6c.5-.4.6-1.1.2-1.6zM81.2 21.8h-5.7a91.6 91.6 0 00-8.4 40h3.4v-.2l.3-3.1.1-1a135.1 135.1 0 019.6-34.3l.4-.9.3-.5zm-8.5 0h-5.1l-.2.4a81.6 81.6 0 00-6.9 39.5h4A95 95 0 0172.8 22zm-7.9.1h-5.3A94.4 94.4 0 0054 61.7h4a85 85 0 016.8-39.8zm-8 0l-5.7.1-.1.5v.2c-.5 1.2-.9 2.8-1.3 4.8-.6 3.3-1.1 7.3-1.4 12l-.1 1.6a156 156 0 000 20.1v.4h3.3c-.6-16 1.2-29.2 5.3-39.6zm35.9-.2H84l-.1.2-.7 1.5-.4.9a103 103 0 00-6.3 18c-.9 3.3-1.5 6.4-2 9.3l.5.2a67 67 0 008.5 3.7c3.7 1.1 6.4 1.3 7.7.4.7-.5 1.2-1.8 1.5-3.7l.1-2.2c-2.8 1.4-7 1.4-8.3-1-1.6-2.8 0-5.7 2.7-5.8 1 0 2 .3 2.7 1l.7 1-2.1 1.2h-.1c0-.2-.1-.3-.3-.4-.2-.2-.5-.4-.7-.3-1 0-1.4.9-.8 2 .6 1 3.6 1 5.4 0 .4-.3.7-.6.9-1a4 4 0 00.4-1.3v-.1l.1-1.2 3 .1-4-5.2.3-17.3zm34.9 26.6c-.4-.4-1-.5-1.6-.2l-8 6c-.5.5-.6 1.2-.2 1.6.3.5 1 .6 1.5.2l8-6c.5-.4.6-1 .3-1.6zm.1-6.1c-.3-.5-1-.6-1.5-.2l-8 6c-.5.4-.6 1.1-.3 1.6.4.5 1 .6 1.6.2l8-6c.5-.4.6-1.1.2-1.6zm-.4-7c-.4-.4-1-.5-1.5-.2l-8 6c-.5.4-.6 1.1-.2 1.6.3.5 1 .6 1.5.2l8-6c.5-.4.6-1 .2-1.6zm-1.7-4.6H118l-.2 7.3 6.5-4.9c.4-.3.8-.5 1.3-.6v-1.8zm2.7-7h-12.7c-1.2 0-2.2 1-2.2 2.2 0 1.2 1 2.1 2.2 2.1h12.7c1.2 0 2.2-1 2.2-2.1 0-1.2-1-2.2-2.2-2.2zm-6.4-14.4a5.3 5.3 0 110 10.6 5.3 5.3 0 010-10.6zM98.8 3l-4.2 13.8-44.2.4-4.5-14L98.8 3zm-35 2.8H49.8l2.7 8.9 12.4-.2-1.3-8.7zm31.1-.3l-14.4.2-.8 8.7 12.7-.1L95 5.5z"></path></svg>