<svg xmlns="http://www.w3.org/2000/svg" viewBox="0 0 140 170"><path fill="#EC5148" d="M90.2 24.7l.3.4c1.5 2 2.3 4.4 2.5 7.3.2 2.7-.1 5.6-1 8.8v.2l4.3 9.7-4.8.1-.7 1.2v3.8l15.5 11v-.5-8.4c0-5.2.1-8.6.4-9.6.3-1 .7-1.9 1.3-3a31.8 31.8 0 013.8-5.3l.5-.7.3-.4v-3.2c-2.5 0-4.5-2-4.6-4.4v-.2c0-2.6 2-4.7 4.7-4.7h12.6a4.7 4.7 0 010 9.3h-.2v3.8c.6.2 1.2.5 1.6 1l.1.2.2.2c1 1.5.7 3.5-.7 4.6.4.2.7.5 1 .9v.1c1.1 1.6.8 3.8-.8 5l-.3.2 1 .8v.2c1 1.5.7 3.6-.8 4.8.4.2.6.4.9.8 1.2 1.5.8 3.8-.7 5l-.8.5V71h8v10.8h-5.4v35.5a15 15 0 015.7 3.6l.2.2a8 8 0 012.2 6.2v.2l-.1 2.6-.2 2.2-.1 2.3v1l-.4 2.8v.2l-.2 1.3-.3.7-.2.3-.2.2a19.2 19.2 0 01-2.9 2.2 15.4 15.4 0 01-5.9 2.4 27.4 27.4 0 01-11.1-.6l-.8-.2h-.2l-1-.3.4-9.4a110 110 0 00-13.7 3.8l-1.6.6-8.8 3-17 6.1-3 1.1-3 1c-21.3 7.4-35 11-43.7 10.8-9.4-.3-15-2.5-17.7-6a7.5 7.5 0 01-1.5-6.2l-.1-13a11 11 0 010-3.9c.4-2 1.6-3.5 3.5-4.2 2.6-1 4.8-1.3 6.4-1.2V82.9l30-21.1v-.1a28 28 0 001.2-3.8 38.5 38.5 0 001.1-15l-.3-2.8c-.5-5-.5-7 .4-9.6a10.5 10.5 0 015-5.7h.3l.2-.1h39.2zm42.4 115.1c-3.1-3.5-9-5.8-17.4-5h.5l-.3 8h.3l.7.2h.4a25 25 0 009.5.2c1.4-.3 2.8-1 4.3-2l1.6-1 .4-.4zM28 124.6l-11.5 17a49.5 49.5 0 0011.2-.2l.3-16.8zm-20.5 5.7c-1.2.5-1.9 1.4-2.2 2.7l-.1.7.1.3c.2 1.6 1 3.4 3.2 4.9 1.2.9 2.7 1.6 4.6 2v-11.7c-1.3 0-3.2.2-5.6 1.1zm31 9h.1c4.3-1.2 9.5-3 16.2-5.4l-5.7-5.5a305 305 0 01-10.6 10.9zm-10-48h-13v47.5L28 120.2l.4-29zm29.2 6.3l-.4.6a227 227 0 01-26.5 30.4l-.5.4v4.3c2.9-2.6 6.3-6 10.4-10.3 7.1-7.6 14.2-16.6 19.4-23.4l-2.4-2zm-6 27.8l-1 1.2 6.6 6.3 6.3-2.3-.5.1-9-8-2.3 2.7zm4-4.7l9.9 9 5.7-2.1L59 116.5l-3.3 4.2zm49.9-33.6a353.6 353.6 0 00-12.4 10.2l-1.2 1-4.5 4.2A195 195 0 0071 121l-.7.8-.7 1 3.9 3.6.3-.4 1-1.3a346.2 346.2 0 018.3-9.6l1.1-1.2a189.6 189.6 0 019.1-9.1c3.3-3 6.8-6 10.3-8.7l1-.8 1.5-1.2 2.1-1.6V85l-2.6 2zM31.1 74.8l-.7 51.1A200.9 200.9 0 0056 96.2L41.7 83.9 31 74.8zm77.1 20.6l-.7.5a211.8 211.8 0 00-20.4 18.3l-1.1 1.2a213.6 213.6 0 00-7 8l-1.1 1.3-.4.5c14.5-5.5 23.6-8.4 30.7-9.5V95.4zM22 116.6l1 2 2.2.3-1.6 1.6.3 2.2-2-1-1.9 1 .4-2.2-1.6-1.6 2.2-.3 1-2zm38.4-2l7.3 6.5.5-.6.2-.2a126.6 126.6 0 016.6-8l-8-6.9-6.6 9.1zm50.2-33v33.8l4.6-.2h.6l3 .2V81.7l-8.2-.1zM22 109l1 2 2.2.3-1.6 1.5.3 2.2-2-1-1.9 1 .4-2.2-1.6-1.5 2.2-.4 1-2zm59.2-3.5l-9.5.8 4.9 4.1 4.6-4.9zM22 101.3l1 2 2.2.3-1.6 1.5.3 2.2-2-1-1.9 1 .4-2.2-1.6-1.5 2.2-.4 1-2zm47.8-5l-9.1.7.9.7 9 7.6-.8-9zm11.6-.4l.7 8.6a222.4 222.4 0 014.2-4.2L81.4 96zM22 93.6l1 2 2.2.3-1.6 1.5.3 2.2-2-1-1.9 1 .4-2.2-1.6-1.5 2.2-.3 1-2zm82.2-25l1-.5a82.4 82.4 0 00-25.9 22.6l8.8 8 3.5-3.2 1.4-1.2a252 252 0 0111.1-9l1.5-1.2 1.7-1.3 1-.7v-.5h-5.8l.3-10.6h4.9l-3.5-2.4zM58.7 86.2l-9.8.8 1.8 1.5 8.8 7.5-.8-9.8zm11.7-.2l.7 8.7 8.2-.7-.7-.7-8.2-7.3zM28.7 74.9l-13.2 9.3v4.7h13l.2-14zM47 77.7l-8.2.7 8.8 7.5-.6-8.2zm11.5-2.2l.8 9.9 9.4-.8-10.2-9.1zm36-13.7l.6-.4a64 64 0 00-12.5 8.7 96.3 96.3 0 00-11.9 13l1.6 1.5c2-2.4 7-8.6 11.2-12.6a72.3 72.3 0 0112.9-8.8l-2-1.4zm-29-17.1v.1a34 34 0 01-10.5 14.6 22.6 22.6 0 01-7.3 3.4l8.4 7.4 10.6 9.3 2.3 2.1a98 98 0 0115-15.6 20.2 20.2 0 01-4.8-.5c-2.8-.8-5.5-3-8.3-6.2a48.3 48.3 0 01-4.2-5.8l-.3-.5-.5-.9c-.6-1-1-1.9-1-2.9 0-.6 0-1.2.3-1.7v-.3c.3-.5.4-1.1.4-2.5zm65.8 28.7h-26.3l-.1 5.7 26.4.2v-5.9zm-94.6-4.3L32 72.5h.1l5.2 4.6-.6-8zm11.4-2.7l.8 8.9 8.6-.7-9.4-8.2zm63.4-21.8a29.5 29.5 0 00-2.5 4.8c-.3.8-.4 4.5-.4 9.9v9.5L112 71h11.5v-5l-5 3.7a3.6 3.6 0 01-4.8-.5V69a3.6 3.6 0 01.6-5c-.3-.1-.6-.4-.9-.7a3.6 3.6 0 01.7-5l-.8-1a3.6 3.6 0 01.7-5 3.5 3.5 0 01-1.3-4.1v-5l-1 1.4zM125.3 60c-.4-.4-1-.5-1.5-.1l-8.1 6c-.5.4-.6 1.2-.3 1.7.4.5 1.1.6 1.6.2l8.1-6c.5-.5.6-1.2.3-1.7l-.1-.1zm-80.5 3.4l-4.4 3.2 7.4-.6-2.4-2-.6-.6zM78 52.2v.2a20.2 20.2 0 01-5.6 4.8l.4.5a16.5 16.5 0 007.6 5.6c3.3.6 5.6.3 7.2-.5l.6-.3.2-7.5a7.3 7.3 0 01-6 1.3c-3-.7-4-2.5-4.4-4zm47.1 2c-.4-.4-1-.4-1.5 0l-8.1 6c-.5.4-.6 1.1-.2 1.6.3.5 1 .6 1.6.2l8-6c.6-.4.7-1.1.3-1.7h-.1zm-34.4 5v2.2l1.8-1-1.8-1.3zM57 27h-5.4l-.4.2-1.5 1.2c-.8.8-1.4 1.7-1.8 2.8-.7 2.1-.8 4-.2 9l.2 2a45 45 0 01-1.2 16.3l-.4 1.4c1.2-1 2.2-2 3.1-3l.5-.6c3.5-4.3 4.3-8 4.3-16.5v-1.1c0-5 1-8.8 2.8-11.7zm10 0h-7.2c-2.2 2.4-3.3 6.1-3.3 11.2v2.1c-.2 9-1.1 13-5.4 18l-1 1a20 20 0 008-6A31 31 0 0064.5 40 97.6 97.6 0 0067 27zm58.4 21.1c-.4-.5-1.1-.6-1.7-.2l-8.3 6.2c-.5.4-.6 1.2-.2 1.7.4.6 1.2.7 1.7.3l8.3-6.3c.5-.4.6-1.1.2-1.7zM82.5 27.1H79a8.2 8.2 0 00-1 1.6 14 14 0 00-1.2 5v.7l-.1 2.2V39c0 2-.2 3.4-.5 5-.6 3.6-2.9 6.8-6.5 9.7v-.1l1.2 1.8c6.2-3.7 8.8-9 9-17.2v-.5c0-4.5.8-8 2.5-10.6zm6.4 0h-3.5c-2 2-3.2 5.4-3.2 10.1v.5c0 5.5-1 10-3.5 13.6.7.7 1.8 1.4 3.5 1.3 3.5-.2 6.2-3.7 6.2-3.7l3-.1h1.2l-3.2-7.2.1-.5c1-3.1 1.3-6 1.1-8.5-.1-2.2-.7-4-1.6-5.4v-.1zM70 38.4c-1.6.4-2 1.4-2 4.4l.1 1.4c.1 2 0 3-.5 4v.9c0 .5.2 1.2.6 1.9l.3.5.1.1a13.9 13.9 0 005.7-9.8 8.7 8.7 0 00-1-1.7c-1-1.3-2-2-3.3-1.7zm55 4.2c-.4-.5-1-.6-1.6-.3l-8 6c-.5.4-.6 1.2-.2 1.7.3.5 1 .6 1.6.2l8-6c.5-.4.6-1.1.2-1.6zm-2.2-6.3H115v9.3l6.9-5.2.8-.5v-3.6zM76.3 27h-7a58.3 58.3 0 01-1.5 9.5 6 6 0 011.6-.5c1.9-.5 3.6.2 5 1.6v-1.1-3a16.4 16.4 0 011.9-6.5zm49 2.1h-12.6c-1.3 0-2.3 1-2.3 2.3 0 1.2 1 2.2 2.3 2.2h12.6c1.3 0 2.3-1 2.3-2.2 0-1.3-1-2.3-2.3-2.3zm-6.2-13.9a5.2 5.2 0 110 10.4 5.2 5.2 0 010-10.4zM70.8 3l9 9.1L90.7 7l-.3 15.4-39.6.2L50.2 7l11.4 5L70.8 3zm0 5.7l-9.4 9.8H80l-9.4-9.8z"></path></svg>