<svg xmlns="http://www.w3.org/2000/svg" viewBox="0 0 140 170"><path fill="#EC5148" d="M92.5 29.5V38l.1 5.5v.8c.2 3.6.6 6.2 1.1 7.2a21.8 21.8 0 003.4 5l.3.3 1 1-5.5 3.4v1c.3.2.6.4.6.7 0 1.5-1 1.8-1 1.8s2.3 2.6-.1 3.3l-1.4-.1-.3 4.7-.3.4-1.1.7c-1 .3-2.2.5-3.8.5l26.8 16.6.1-.1 13.1 8.3v25c13.4 2.5 12 9.8 12 9.8l-.5 8.6c0 .5-.7 4-1 4.1-.4 1-1 1.8-1.7 2.6-1.5 1.7-3.5 3-6.1 3.8a15.5 15.5 0 01-14.5-3.1l-.2-.1-.3-.4.2-8.8c-19.3 3.8-71.5 26-92.4 25.4-22.1-.6-18.7-10.7-18.7-10.7L2 143.5V140 141a8.7 8.7 0 016-7.2c1-.3 2-.4 3.1-.4L11 99.8l26-19.3c-1.2-.2-2.4-.6-3.5-1-9.8-3.7-15.4-13.6-11.7-25.9.2-1.2.5-2.4 1.1-3.5V50a7 7 0 012-3.7c4.1-4.2 13.5-4.3 21.7.9l.4.2.1-.3c1.1-2.6 1.7-6 1.7-10v-7.6h43.7zm24 110.5h-.5l-.2 8.2.1.1a12.8 12.8 0 0011.5 2.1 9.7 9.7 0 004.9-3 8 8 0 001.7-3c-3-2.5-8.3-5.3-17.5-4.4zm-91.2.9l-5.9 7.9 6-.3V141zm0-33.5H13.6l.3 41 2.4.3 9-12v-29.3zm32.1 6l1.5-1.2a486 486 0 00-29.7 28.3l-1.3 1.3v6.4l1.6-.2 31.9-31.3-2-1.6a96 96 0 00-2-1.6zM8.7 136.2l-1 .4c-1.7.9-2.9 2.7-3.1 4.7a6.6 6.6 0 00.8 4.3 16 16 0 005.9 2.5v-12.2c-1 0-1.8 0-2.6.3zm47.4 1.8l-3.8 3.9 5.9-2-2-2zm-36.6-5.3l1 2 2.3.3-1.6 1.6.4 2.2-2-1-2 1 .3-2.2-1.6-1.6 2.2-.3 1-2zm8.4-12.1v17.7l10.4-10.4c-3.7-2.8-7.4-5.4-11.2-7.8l.8.5zm37.4 8l-4.3 4.3 4.8 4.2 2-.7a107.8 107.8 0 012.8-3.8l-5.3-4zm-45.8-3.6l1 2 2.3.3-1.6 1.5.4 2.2-2-1-2 1 .3-2.2-1.6-1.5 2.2-.3 1-2zm50.4-1.2l-2.9 3 5 3.8 2.5-3-4.6-3.8zm38.5-10.3l-.7.5a121.1 121.1 0 00-17 14.4c6.4-2 12.3-3.7 17.6-4.6l.1-10.3zm14.5-5.6l-11.6 15.5a40.4 40.4 0 0111.6.1v-15.6zm-103.4 9.3l1 2 2.3.3-1.6 1.6.4 2.2-2-1-2 1 .3-2.2-1.6-1.6 2.2-.3 1-2zm8.3-14.8v8.8c6.4 3.6 11.8 7.4 16.3 11.1l6.1-5.6c-6-4.5-13.5-9.3-22.4-14.3zm42 .7a134.5 134.5 0 01-9 0 185 185 0 0121 17.5l-.5-.5a126.9 126.9 0 014-3.9l-.3-.4-.5-.4c-1-1.1-2.5-2.4-4.4-4l-1.6-1.3-1.9-1.5-6.8-5.5zm41.5-10l-.4 26.6 12-16v-3.4l-11.6-7.3zm-91.8 16.4l1 2 2.3.3-1.6 1.5.4 2.2-2-1-2 1 .3-2.2-1.6-1.5 2.2-.3 1-2zm8.3-13.2v3.2l.4.2c9.5 5.4 17.5 10.5 24 15.3l3.2-3a147.2 147.2 0 00-14.8-10l-2.7-1.6-1-.6-.6-.3a69 69 0 01-8.5-3.2zm80.9-3.2l-6.2 4c-5.8 3.7-12 8.4-18.7 14.2l2.9 2.6.2.2.3.4c5.2-4.7 10.1-8.6 14.7-11.8l1-.8 4.8-3 .9-.5V93zm-85.3.7l-9.8 7.3v4h11.7V95l-2-1.2zm73.5-9.5c-1.4 1-3.2 1.9-5.4 2.7a70 70 0 01-25.2 3.8A82 82 0 0142 87.5c-2.2-.7-4-1.4-5.5-2.2L36 85l-10.1 7.4h.2l.3.3.3.2.9.4h.2v.1l4.8 2.1 3.9 1.1c3.8 1.1 6.9 1.9 9.1 2.3h.7c3.3.6 9.4 1.3 9.8 1.3h.3v.2c3 .2 6.2.3 9.5.3 13.5-.1 24.5-2.2 33.1-5.6a45.5 45.5 0 008.4-4.3h.2L97 84.1h-.1zm-30 8.1l1 2.2 2.6.3-1.8 1.7.4 2.4-2.3-1.1-2.3 1 .5-2.3-1.9-1.7 2.6-.3 1.1-2.2zm-13-.7l.7 2.3 2.3.7-2 1.5v2.4L53 97l-2.3.8.8-2.3-1.4-2 2.4.1 1.5-2zm26.2-.3l1.6 2 2.5-.3-1.3 2 1 2.3-2.4-.6-1.8 1.6-.2-2.4-2.2-1.3 2.3-.9.5-2.4zm-38.5-2l.3 2.4 2.2 1-2.3 1.2-.3 2.4-1.7-1.7-2.5.4 1.2-2.1-1.1-2.2 2.4.4 1.8-1.7zm51-1l1.8 1.6 2.3-.5-1 2.1 1.4 2-2.4-.2L93 95l-.5-2.3-2.3-1 2-1.1.2-2.4zm-27.8-9.8L62.6 88a136.9 136.9 0 005 0v-9.4l-2.8-.1zm5.4.2V88c2.5 0 4.9-.2 7.1-.4l-4.5-9h-2.6zm-10.5-1.3l-6 10 6.3.5 2.3-9.8a22 22 0 01-2.6-.7zm15.8.8l4.5 9c2.3-.3 4.5-.7 6.5-1.3l-8.4-8.2-2.6.5zM50.6 80l-5.8 5.8c1.9.5 4 .9 6.2 1.2l5.5-9.1c-2 .9-4 1.6-5.9 2zm30.1-3.2l8.5 8.3c2-.7 3.9-1.5 5.5-2.5l-11.4-7-2.6 1.2zM40.6 81l-2.9 2.1a32 32 0 004.4 1.8l4.1-4c-2 .2-3.8.2-5.6.1zm37.8-43.2h-5.9c-1.2.6-2.3 2-3.1 4.2l-.2.5-1.3 4.4-1 4.2-1.8 6c-3 8.1-8 12.7-17 15.5-9.6 2.9-18.9 1-24.2-6.2 1.6 5 5.4 8.8 10.5 10.8 1.7.6 3.5 1 5.4 1.2h.1c3 .4 6.2.1 9.4-.7h.1c4.7-1.1 9.4-3.4 13.7-6.8a26 26 0 008.1-11.5c.8-2 1.4-4 2-6.3v-.7l1.2-5.8.2-1 .7-2.5c.7-2.2 1.8-4 3.1-5.3zM70 67.3l-.1.2c-1.5 2-3.2 3.8-5.1 5.3a42 42 0 01-3.6 2.5 34.7 34.7 0 0020.5-1.5l.2-.2-1.2-.3a23.7 23.7 0 01-10.2-5.5l-.4-.3-.1-.2zm20-29.5H83c-2.5.8-4.3 2.7-5.4 6.1-.3.7-.5 1.5-.7 2.6l-.8 4-.5 2.5a50.6 50.6 0 01-4.5 12.2v.1l.8.7a21 21 0 009.2 5c3.4.8 5.7.8 7 .3h.2l.3-4.7c-1.8-1.2-3.3-3-3.2-3.6.1-.5 2.6-1.2 4.8-1.2v-2l4.2-2.6-.3-.4-1.1-1.6-.4-.5c-.5-.8-1-1.5-1.3-2.3-.7-1.4-1.1-4.1-1.3-8-.2-2.3-.2-4.6-.2-6.6zm-21 0h-4.7a12.4 12.4 0 00-5.5 7.3l-.4 1.4-.3 1.2-.6 2a23 23 0 01-5.3 10.7A21.6 21.6 0 0129.5 66a12 12 0 01-4.8-3C29 70.8 38 73 47.3 70.2c8.2-2.5 12.5-6.5 15.3-13.6l.2-.8c.6-1.6 1-2.8 1.6-5.4l1-3.8c.6-2.4 1-3.9 1.6-5.4.6-1.4 1.2-2.5 1.9-3.4zm-8.7 0h-8.9c-.1 5.4-1.2 9.8-3.3 13-3.8 6-10.6 9.4-17.8 7.8-2.7-.6-4.8-2-6-3.8-.2 3.7 1.9 7.4 6.1 8.9a19 19 0 0021-6.1c1.7-2.2 2.5-4.2 3.6-8l.7-2.8.8-2.5c.8-2.7 2-4.8 3.8-6.5zm-27 15.7c-2.2.3-3 1-3 2.5l.6.1c3.2.8 6.3.3 9-1a10.2 10.2 0 00-6.7-1.6zM26.7 48c-2.2 2.2-1.6 5.2 1 7 .4-2.3 2.1-3.6 5-4a13 13 0 019.3 2.7 16 16 0 003.6-4h.1l-.2-.2c-7.4-4.8-15.7-4.7-18.8-1.5zm63-16H51.3v3.3H90V32zM70.3 4l10 17.8 11.2-9.4v14h-8.7l-24 .2H50V12.5L61 22 70.2 4zm.2 8.1L65 22.6h11.2L70.4 12z"></path></svg>